<?xml version="1.0" encoding="utf-8"?>
<!-- Generator: Adobe Illustrator 26.5.0, SVG Export Plug-In . SVG Version: 6.00 Build 0)  -->
<svg version="1.1" id="Layer_1" xmlns="http://www.w3.org/2000/svg" xmlns:xlink="http://www.w3.org/1999/xlink" x="0px" y="0px"
	 viewBox="0 0 297.97 232.29" style="enable-background:new 0 0 297.97 232.29;" xml:space="preserve">
<style type="text/css">
	.st0{clip-path:url(#SVGID_00000063617122526876254300000001752452676408376237_);fill:#FFFFFF;}
	.st1{fill:#FFFFFF;}
	.st2{font-family:'Helvetica-Oblique';}
	.st3{font-size:28px;}
</style>
<g>
	<defs>
		<rect id="SVGID_1_" width="297.97" height="232.29"/>
	</defs>
	<clipPath id="SVGID_00000130635532061416323080000003725096915108307626_">
		<use xlink:href="#SVGID_1_"  style="overflow:visible;"/>
	</clipPath>
	<path style="clip-path:url(#SVGID_00000130635532061416323080000003725096915108307626_);fill:#FFFFFF;" d="M108.44,72.01
		c12.35,0,23.54,5.01,31.64,13.1l16.16-16.16c-12.23-12.23-29.13-19.8-47.8-19.8c-2.25,0-4.47,0.12-6.67,0.33v23.02
		C103.94,72.19,106.17,72.01,108.44,72.01"/>
	<path style="clip-path:url(#SVGID_00000130635532061416323080000003725096915108307626_);fill:#FFFFFF;" d="M88.48,76.71V52.16
		c-1.53,0.47-3.03,1.01-4.5,1.58V79.3C85.42,78.35,86.93,77.49,88.48,76.71"/>
	<path style="clip-path:url(#SVGID_00000130635532061416323080000003725096915108307626_);fill:#FFFFFF;" d="M70.69,92.75V60.67
		c-1.55,1.05-3.05,2.17-4.5,3.34v38.03C67.33,98.75,68.85,95.64,70.69,92.75"/>
	<path style="clip-path:url(#SVGID_00000130635532061416323080000003725096915108307626_);fill:#FFFFFF;" d="M83.98,154.21v25.56
		c1.48,0.57,2.98,1.11,4.5,1.58V156.8C86.93,156.02,85.42,155.16,83.98,154.21"/>
	<path style="clip-path:url(#SVGID_00000130635532061416323080000003725096915108307626_);fill:#FFFFFF;" d="M66.19,131.48v38.03
		c1.46,1.17,2.95,2.29,4.5,3.33v-32.07C68.85,137.88,67.33,134.77,66.19,131.48"/>
	<path style="clip-path:url(#SVGID_00000130635532061416323080000003725096915108307626_);fill:#FFFFFF;" d="M108.44,161.5
		c-2.27,0-4.49-0.17-6.67-0.5v23.02c2.19,0.22,4.42,0.33,6.67,0.33c18.67,0,35.56-7.57,47.8-19.8l-16.16-16.16
		C131.98,156.49,120.79,161.5,108.44,161.5"/>
	<path style="clip-path:url(#SVGID_00000130635532061416323080000003725096915108307626_);fill:#FFFFFF;" d="M48.4,85.71v62.09
		c1.35,2.6,2.85,5.09,4.51,7.48V78.24C51.24,80.62,49.74,83.12,48.4,85.71"/>
	<path style="clip-path:url(#SVGID_00000130635532061416323080000003725096915108307626_);fill:#FFFFFF;" d="M101.77,184.02v2.8
		h-13.3v-5.46C92.75,182.67,97.19,183.58,101.77,184.02"/>
	
		<rect x="88.47" y="192.37" style="clip-path:url(#SVGID_00000130635532061416323080000003725096915108307626_);fill:#FFFFFF;" width="13.3" height="3.91"/>
	<polygon style="clip-path:url(#SVGID_00000130635532061416323080000003725096915108307626_);fill:#FFFFFF;" points="95.12,35.81 
		95.12,38.59 101.77,38.59 101.77,41.5 88.47,41.5 88.47,33.03 101.77,33.03 101.77,35.81 	"/>
	<path style="clip-path:url(#SVGID_00000130635532061416323080000003725096915108307626_);fill:#FFFFFF;" d="M88.48,47.06h13.3v2.43
		c-4.58,0.45-9.03,1.35-13.3,2.67V47.06z"/>
	<path style="clip-path:url(#SVGID_00000130635532061416323080000003725096915108307626_);fill:#FFFFFF;" d="M83.97,179.77v1.49
		H70.69v-8.43C74.82,175.61,79.28,177.94,83.97,179.77"/>
	
		<rect x="70.69" y="186.82" style="clip-path:url(#SVGID_00000130635532061416323080000003725096915108307626_);fill:#FFFFFF;" width="13.29" height="4.95"/>
	<polygon style="clip-path:url(#SVGID_00000130635532061416323080000003725096915108307626_);fill:#FFFFFF;" points="83.97,197.32 
		83.97,206.35 70.69,206.35 70.69,203.39 76.7,203.39 76.7,200.61 70.69,200.61 70.69,197.32 	"/>
	<path style="clip-path:url(#SVGID_00000130635532061416323080000003725096915108307626_);fill:#FFFFFF;" d="M83.97,46.41v7.34
		c-4.7,1.83-9.15,4.14-13.28,6.93v-7.75h8.3v-2.78h-8.3v-3.74H83.97z"/>
	<path style="clip-path:url(#SVGID_00000130635532061416323080000003725096915108307626_);fill:#FFFFFF;" d="M66.19,169.5v4.29H52.9
		v-4.14h5.32v-2.78H52.9v-11.61C56.63,160.64,61.11,165.43,66.19,169.5"/>
	
		<rect x="52.9" y="179.35" style="clip-path:url(#SVGID_00000130635532061416323080000003725096915108307626_);fill:#FFFFFF;" width="13.28" height="1.91"/>
	
		<rect x="52.9" y="186.82" style="clip-path:url(#SVGID_00000130635532061416323080000003725096915108307626_);fill:#FFFFFF;" width="13.28" height="2.4"/>
	
		<rect x="52.9" y="25.94" style="clip-path:url(#SVGID_00000130635532061416323080000003725096915108307626_);fill:#FFFFFF;" width="13.28" height="4.32"/>
	<polygon style="clip-path:url(#SVGID_00000130635532061416323080000003725096915108307626_);fill:#FFFFFF;" points="66.19,35.81 
		66.19,46.39 52.9,46.39 52.9,44.01 60.17,44.01 60.17,41.24 52.9,41.24 52.9,35.81 	"/>
	
		<rect x="52.9" y="51.94" style="clip-path:url(#SVGID_00000130635532061416323080000003725096915108307626_);fill:#FFFFFF;" width="13.28" height="4.93"/>
	<path style="clip-path:url(#SVGID_00000130635532061416323080000003725096915108307626_);fill:#FFFFFF;" d="M52.9,62.42h13.29v1.59
		c-5.08,4.07-9.56,8.86-13.29,14.22V62.42z"/>
	
		<rect x="35.12" y="61.85" style="clip-path:url(#SVGID_00000130635532061416323080000003725096915108307626_);fill:#FFFFFF;" width="13.28" height="4.39"/>
	
		<rect x="35.12" y="71.79" style="clip-path:url(#SVGID_00000130635532061416323080000003725096915108307626_);fill:#FFFFFF;" width="13.28" height="1.96"/>
	<path style="clip-path:url(#SVGID_00000130635532061416323080000003725096915108307626_);fill:#FFFFFF;" d="M48.4,85.71
		c-4.83,9.3-7.56,19.85-7.56,31.05c0,11.19,2.73,21.74,7.56,31.04v1.92H35.12v-8.07h7.8v-2.78h-7.8v-16.06h4.12v-2.78h-4.12V93.13
		h6.01v-2.78h-6.01v-3.84h8.94v-2.78h-8.94V79.3H48.4V85.71z"/>
	
		<rect x="35.12" y="155.27" style="clip-path:url(#SVGID_00000130635532061416323080000003725096915108307626_);fill:#FFFFFF;" width="13.28" height="4.48"/>
	
		<rect x="66.19" y="30.25" style="clip-path:url(#SVGID_00000130635532061416323080000003725096915108307626_);fill:#FFFFFF;" width="5.56" height="5.55"/>
	
		<rect x="47.35" y="46.38" style="clip-path:url(#SVGID_00000130635532061416323080000003725096915108307626_);fill:#FFFFFF;" width="5.56" height="5.55"/>
	
		<rect x="101.77" y="186.82" style="clip-path:url(#SVGID_00000130635532061416323080000003725096915108307626_);fill:#FFFFFF;" width="5.56" height="5.56"/>
	
		<rect x="50.12" y="41.24" style="clip-path:url(#SVGID_00000130635532061416323080000003725096915108307626_);fill:#FFFFFF;" width="2.78" height="2.78"/>
	
		<rect x="101.77" y="35.81" style="clip-path:url(#SVGID_00000130635532061416323080000003725096915108307626_);fill:#FFFFFF;" width="2.78" height="2.78"/>
	
		<rect x="29.56" y="66.23" style="clip-path:url(#SVGID_00000130635532061416323080000003725096915108307626_);fill:#FFFFFF;" width="5.56" height="5.55"/>
	
		<rect x="32.33" y="149.72" style="clip-path:url(#SVGID_00000130635532061416323080000003725096915108307626_);fill:#FFFFFF;" width="2.78" height="5.56"/>
	
		<rect x="44.95" y="173.8" style="clip-path:url(#SVGID_00000130635532061416323080000003725096915108307626_);fill:#FFFFFF;" width="7.95" height="5.56"/>
	
		<rect x="66.19" y="191.77" style="clip-path:url(#SVGID_00000130635532061416323080000003725096915108307626_);fill:#FFFFFF;" width="4.5" height="5.56"/>
	
		<rect x="85.48" y="41.5" style="clip-path:url(#SVGID_00000130635532061416323080000003725096915108307626_);fill:#FFFFFF;" width="3" height="5.55"/>
	<path style="clip-path:url(#SVGID_00000130635532061416323080000003725096915108307626_);fill:#FFFFFF;" d="M176.28,163.88
		c-0.29,0-0.74,0.06-1.38,0.19c-1.1,0.21-2.65,0.28-3.83-0.09c-0.52-0.16-0.95-0.46-1.32-0.92c-0.38-0.46-0.67-1.13-0.89-1.97
		c-0.22-0.87-0.33-2.01-0.33-3.4c0-1.26,0.1-2.33,0.28-3.18c0.18-0.82,0.46-1.48,0.81-1.95c0.35-0.47,0.78-0.8,1.3-1
		c0.99-0.38,2.41-0.37,3.74-0.21c0.61,0.08,1.26,0.17,1.95,0.27l0.42,0.07v-1.33c0-0.43-0.23-0.76-0.62-0.91
		c-0.16-0.08-0.39-0.15-0.69-0.21c-0.28-0.05-0.59-0.1-0.93-0.15c-0.34-0.04-0.7-0.08-1.09-0.11c-0.39-0.03-0.75-0.05-1.09-0.05
		c-2.18,0-3.86,0.72-4.99,2.13c-1.11,1.39-1.67,3.66-1.67,6.76c0,1.27,0.11,2.45,0.32,3.49c0.21,1.07,0.58,2,1.09,2.77
		c0.52,0.79,1.22,1.4,2.09,1.83c0.86,0.42,1.92,0.64,3.16,0.64c0.71,0,1.48-0.06,2.31-0.18c0.83-0.12,1.5-0.27,2-0.46l0.24-0.09
		v-1.1c0-0.18-0.06-0.36-0.18-0.53C176.88,164.05,176.68,163.88,176.28,163.88"/>
	<path style="clip-path:url(#SVGID_00000130635532061416323080000003725096915108307626_);fill:#FFFFFF;" d="M185.82,164.11h-0.68
		c-0.58,0-0.86-0.1-0.99-0.18c-0.02-0.01-0.21-0.16-0.21-0.98v-19.85c0-0.52-0.32-0.85-0.85-0.85h-1.69v20.76
		c0,0.99,0.25,1.8,0.74,2.42c0.51,0.64,1.3,0.96,2.34,0.96c0.32,0,0.66-0.03,1.01-0.09c0.34-0.05,0.62-0.1,0.84-0.15l0.29-0.06
		v-1.17c0-0.18-0.05-0.35-0.16-0.51C186.38,164.28,186.19,164.11,185.82,164.11"/>
	<path style="clip-path:url(#SVGID_00000130635532061416323080000003725096915108307626_);fill:#FFFFFF;" d="M202.13,150.98
		c-0.46-0.67-1.11-1.2-1.93-1.58c-0.81-0.38-1.85-0.57-3.09-0.57c-1.1,0-2.09,0.17-2.94,0.49c-0.87,0.34-1.6,0.87-2.19,1.6
		c-0.58,0.72-1.03,1.66-1.32,2.8c-0.29,1.12-0.43,2.5-0.43,4.1c0,1.56,0.15,2.9,0.43,4c0.29,1.12,0.75,2.04,1.36,2.74
		c0.61,0.71,1.4,1.22,2.35,1.53c0.92,0.3,2.02,0.46,3.26,0.46h0h0c0.95-0.02,1.88-0.09,2.75-0.2c0.89-0.11,1.57-0.26,2.07-0.44
		l0.24-0.09v-1.1c0-0.18-0.06-0.36-0.18-0.53c-0.1-0.14-0.3-0.32-0.7-0.32c-0.28,0-0.75,0.06-1.41,0.19
		c-0.61,0.11-1.44,0.17-2.48,0.17c-1.04,0-1.9-0.11-2.55-0.32c-0.62-0.2-1.12-0.53-1.47-0.97c-0.36-0.45-0.63-1.05-0.79-1.77
		c-0.15-0.66-0.26-1.46-0.32-2.38H203l0.07-0.27c0.07-0.28,0.12-0.63,0.17-1.09c0.04-0.44,0.07-0.89,0.07-1.33
		c0-0.99-0.08-1.93-0.25-2.79C202.89,152.42,202.58,151.64,202.13,150.98 M197.11,151.14c0.79,0,1.43,0.1,1.9,0.31
		c0.46,0.2,0.82,0.49,1.08,0.87c0.27,0.38,0.46,0.89,0.56,1.5c0.1,0.65,0.16,1.4,0.16,2.25v0.4c0,0.03,0,0.05,0,0.08h-8.02
		c0.03-0.72,0.11-1.4,0.24-2.02c0.14-0.7,0.38-1.31,0.71-1.82c0.32-0.49,0.75-0.88,1.29-1.16
		C195.56,151.28,196.26,151.14,197.11,151.14"/>
	<path style="clip-path:url(#SVGID_00000130635532061416323080000003725096915108307626_);fill:#FFFFFF;" d="M218.64,150.59
		c-0.48-0.53-1.15-0.94-1.98-1.23c-1.33-0.46-3.27-0.52-5.63-0.29c-0.93,0.09-1.83,0.26-2.69,0.5l-0.26,0.07v1.05
		c0,0.56,0.34,0.91,0.88,0.91c0.3,0,0.85-0.07,1.66-0.2c0.76-0.13,1.64-0.19,2.62-0.19c0.81,0,1.5,0.06,2.04,0.18
		c0.52,0.12,0.93,0.31,1.25,0.56c0.3,0.25,0.51,0.58,0.65,1.01c0.14,0.46,0.21,1.04,0.21,1.71v0.91h-3.89
		c-2.04,0-3.64,0.43-4.74,1.27c-1.14,0.87-1.71,2.3-1.71,4.24c0,1.69,0.46,3.04,1.36,4.01c0.91,0.98,2.33,1.48,4.22,1.48
		c0.59,0,1.16-0.07,1.69-0.21c0.53-0.13,1.03-0.3,1.48-0.51c0.46-0.2,0.89-0.44,1.27-0.7c0.15-0.1,0.28-0.2,0.41-0.3l0.03,0.54
		c0,0.52,0.32,0.85,0.85,0.85h1.56v-11.52c0-0.83-0.09-1.59-0.27-2.28C219.46,151.74,219.12,151.11,218.64,150.59 M211.44,158.06
		c0.52-0.18,1.19-0.27,1.99-0.27h3.96v4.52c-0.52,0.5-1.15,0.96-1.88,1.38c-0.75,0.43-1.66,0.65-2.69,0.65
		c-1.03,0-1.86-0.25-2.46-0.75c-0.58-0.48-0.87-1.33-0.87-2.53c0-0.44,0.06-0.87,0.18-1.28c0.11-0.39,0.31-0.73,0.59-1.02
		C210.53,158.48,210.93,158.24,211.44,158.06"/>
	<path style="clip-path:url(#SVGID_00000130635532061416323080000003725096915108307626_);fill:#FFFFFF;" d="M232.63,148.83
		c-0.7,0-1.35,0.07-1.94,0.22c-0.58,0.15-1.12,0.33-1.59,0.54c-0.48,0.22-0.91,0.47-1.27,0.74c-0.11,0.08-0.21,0.16-0.31,0.24
		l-0.02-0.5c0-0.52-0.32-0.85-0.85-0.85h-1.56v16.19c0,0.52,0.32,0.85,0.85,0.85h1.69v-13.07c0.19-0.2,0.42-0.41,0.68-0.63
		c0.31-0.25,0.66-0.49,1.06-0.71c0.39-0.21,0.84-0.39,1.32-0.52c0.48-0.13,0.99-0.2,1.54-0.2c1.04,0,1.85,0.28,2.46,0.86
		c0.6,0.57,0.91,1.55,0.91,2.93v10.48c0,0.52,0.32,0.85,0.85,0.85h1.69v-11.39c0-2.08-0.51-3.63-1.51-4.59
		C235.65,149.32,234.3,148.83,232.63,148.83"/>
	<path style="clip-path:url(#SVGID_00000130635532061416323080000003725096915108307626_);fill:#FFFFFF;" d="M259.11,165.75
		c-0.24-0.55-0.58-1.25-1.02-2.1c-0.44-0.85-0.93-1.75-1.45-2.67c-0.53-0.93-1.1-1.85-1.7-2.75c-0.47-0.7-0.94-1.34-1.39-1.9
		c0.49-0.14,0.96-0.33,1.4-0.55c0.62-0.31,1.17-0.73,1.62-1.25c0.45-0.52,0.81-1.17,1.06-1.94c0.25-0.76,0.38-1.67,0.38-2.72
		c0-1.09-0.14-2.08-0.41-2.93c-0.28-0.88-0.73-1.62-1.34-2.23c-0.61-0.6-1.4-1.06-2.35-1.37c-0.93-0.3-2.07-0.45-3.4-0.45
		c-1.24,0-2.46,0.06-3.64,0.18c-1.18,0.12-2.17,0.25-2.94,0.38l-0.3,0.05v21.91c0,0.52,0.32,0.85,0.85,0.85h1.75v-9.6h4.31
		c0.6,0.69,1.18,1.45,1.75,2.26c0.61,0.88,1.16,1.74,1.66,2.56c0.5,0.82,0.95,1.61,1.34,2.34c0.38,0.72,0.68,1.3,0.89,1.73
		c0.06,0.14,0.14,0.28,0.25,0.42c0.16,0.2,0.42,0.3,0.77,0.3h2.14L259.11,165.75z M255.02,152.14c-0.23,0.57-0.54,1.01-0.93,1.33
		c-0.4,0.32-0.88,0.54-1.42,0.66c-0.58,0.12-1.23,0.19-1.94,0.19h-4.51v-8.74c0.44-0.07,0.96-0.12,1.55-0.17
		c0.74-0.07,1.67-0.1,2.76-0.1c0.83,0,1.57,0.08,2.2,0.23c0.6,0.15,1.09,0.39,1.47,0.73c0.37,0.33,0.66,0.79,0.86,1.36
		c0.2,0.59,0.31,1.35,0.31,2.25C255.37,150.79,255.25,151.56,255.02,152.14"/>
	<path style="clip-path:url(#SVGID_00000130635532061416323080000003725096915108307626_);fill:#FFFFFF;" d="M122.08,131.35
		c-0.69-1.35-1.46-2.78-2.3-4.24c-0.85-1.49-1.76-2.97-2.71-4.38c-0.48-0.71-0.95-1.38-1.42-2c0.36-0.14,0.72-0.3,1.07-0.48
		c1.09-0.55,2.05-1.29,2.84-2.2c0.79-0.91,1.41-2.05,1.85-3.38c0.42-1.29,0.64-2.83,0.64-4.58c0-1.81-0.23-3.46-0.68-4.89
		c-0.48-1.52-1.27-2.83-2.35-3.89c-1.07-1.04-2.43-1.84-4.06-2.37c-1.56-0.51-3.46-0.76-5.64-0.76c-1.98,0-3.93,0.1-5.82,0.29
		c-1.86,0.19-3.44,0.39-4.69,0.6l-1.26,0.21v35.25c0,1.34,0.94,2.28,2.28,2.28h3.7v-15.1h5.4c0.82,0.97,1.63,2.03,2.41,3.15
		c0.93,1.35,1.8,2.68,2.58,3.97c0.79,1.31,1.49,2.53,2.08,3.64c0.59,1.09,1.05,1.99,1.38,2.68c0.12,0.29,0.29,0.57,0.51,0.84
		c0.3,0.38,0.88,0.82,1.95,0.82h4.82l-0.93-2.12C123.31,133.82,122.76,132.69,122.08,131.35 M116.01,110.11
		c0,1.33-0.16,2.41-0.48,3.22c-0.3,0.75-0.68,1.3-1.17,1.7c-0.52,0.42-1.12,0.69-1.84,0.85c-0.84,0.18-1.8,0.27-2.85,0.27h-6.14
		v-11.97c0.48-0.06,1-0.11,1.58-0.16c1.14-0.1,2.58-0.15,4.26-0.15c1.23,0,2.32,0.12,3.24,0.34c0.79,0.19,1.43,0.51,1.9,0.93
		c0.47,0.43,0.83,0.99,1.09,1.74C115.86,107.7,116.01,108.79,116.01,110.11"/>
	<path style="clip-path:url(#SVGID_00000130635532061416323080000003725096915108307626_);fill:#FFFFFF;" d="M140.07,98.44h-3.71
		v36.1c0,1.34,0.93,2.28,2.28,2.28h3.71v-36.1C142.34,99.38,141.41,98.44,140.07,98.44"/>
	<path style="clip-path:url(#SVGID_00000130635532061416323080000003725096915108307626_);fill:#FFFFFF;" d="M176.76,118.06
		c-0.96-0.86-2.17-1.6-3.59-2.18c-1.32-0.55-2.91-1.09-4.7-1.6c-1.29-0.4-2.42-0.78-3.34-1.14c-0.81-0.31-1.47-0.67-1.95-1.08
		c-0.42-0.35-0.71-0.76-0.91-1.27c-0.22-0.57-0.33-1.33-0.33-2.26c0-1.65,0.41-2.83,1.25-3.61c0.59-0.55,1.99-1.21,5.3-1.21
		c1.35,0,2.78,0.09,4.23,0.27c1.48,0.18,2.76,0.36,3.8,0.53l1.75,0.28v-3.25c0-1.18-0.64-2.11-1.78-2.52
		c-0.5-0.15-1.08-0.29-1.77-0.42c-0.66-0.12-1.37-0.23-2.12-0.32c-0.75-0.09-1.52-0.15-2.3-0.19c-0.77-0.04-1.48-0.05-2.11-0.05
		c-2.08,0-3.91,0.25-5.44,0.74c-1.58,0.51-2.89,1.24-3.9,2.16c-1.03,0.95-1.79,2.11-2.26,3.44c-0.45,1.26-0.67,2.68-0.67,4.2
		c0,1.79,0.26,3.33,0.78,4.58c0.53,1.28,1.3,2.37,2.29,3.24c0.94,0.82,2.06,1.5,3.33,2.02c1.16,0.48,2.46,0.93,3.85,1.34
		c1.59,0.5,2.94,0.96,4.01,1.37c0.94,0.36,1.67,0.77,2.18,1.21c0.45,0.39,0.76,0.83,0.94,1.35c0.21,0.6,0.32,1.38,0.32,2.32
		c0,0.97-0.11,1.83-0.32,2.56c-0.18,0.62-0.48,1.12-0.9,1.54c-0.43,0.42-1.07,0.76-1.91,1.01c-0.92,0.28-2.14,0.42-3.62,0.42
		c-1.74,0-3.39-0.12-4.89-0.36l-5.71-0.92v3.26c0,1.18,0.64,2.11,1.73,2.5c0.99,0.34,2.29,0.63,4,0.88
		c1.66,0.25,3.37,0.37,5.07,0.37c4.25,0,7.44-0.95,9.49-2.82c2.09-1.91,3.15-4.74,3.15-8.44c0-1.8-0.23-3.34-0.68-4.59
		C178.53,120.11,177.77,118.98,176.76,118.06"/>
	<path style="clip-path:url(#SVGID_00000130635532061416323080000003725096915108307626_);fill:#FFFFFF;" d="M214.77,120.94
		c1.06-1.06,1.88-2.43,2.45-4.07c0.55-1.58,0.82-3.51,0.82-5.75c0-4.46-1.09-7.76-3.24-9.84c-2.14-2.06-5.47-3.1-9.9-3.1
		c-0.88,0-1.79,0.03-2.71,0.08c-0.92,0.05-1.83,0.12-2.72,0.21c-0.88,0.09-1.72,0.18-2.52,0.29c-0.8,0.1-1.52,0.21-2.15,0.31
		l-1.26,0.21v35.25c0,1.34,0.94,2.28,2.28,2.28h3.7v-13.48c0.95,0.15,1.87,0.27,2.75,0.36c1.41,0.14,2.69,0.21,3.8,0.21
		c1.74,0,3.35-0.22,4.77-0.65C212.38,122.8,213.7,122.02,214.77,120.94 M210.27,105.05c0.52,0.45,0.94,1.12,1.24,2.02
		c0.34,1,0.51,2.36,0.51,4.06c0,1.51-0.14,2.77-0.42,3.73c-0.25,0.86-0.62,1.53-1.1,2.01c-0.48,0.48-1.07,0.81-1.81,1.01
		c-1.73,0.48-4.34,0.42-6.77,0.13c-0.82-0.1-1.62-0.22-2.39-0.36v-13.48c0.47-0.06,0.98-0.11,1.53-0.16c1.11-0.1,2.42-0.15,3.9-0.15
		c1.22,0,2.34,0.09,3.31,0.28C209.08,104.3,209.73,104.6,210.27,105.05"/>
	<path style="clip-path:url(#SVGID_00000130635532061416323080000003725096915108307626_);fill:#FFFFFF;" d="M247.96,128.84
		c0.79,1.31,1.49,2.53,2.08,3.64c0.58,1.09,1.05,1.99,1.38,2.68c0.12,0.29,0.29,0.58,0.51,0.84c0.3,0.38,0.88,0.82,1.95,0.82h4.82
		l-0.94-2.12c-0.39-0.89-0.93-2.01-1.62-3.35c-0.69-1.34-1.46-2.77-2.3-4.24c-0.85-1.49-1.76-2.97-2.71-4.38
		c-0.48-0.71-0.95-1.38-1.41-2c0.36-0.14,0.72-0.31,1.06-0.48c1.09-0.55,2.05-1.29,2.84-2.2c0.79-0.91,1.41-2.05,1.85-3.38
		c0.42-1.29,0.64-2.83,0.64-4.58c0-1.81-0.23-3.46-0.68-4.89c-0.48-1.52-1.27-2.83-2.35-3.89c-1.07-1.04-2.43-1.84-4.06-2.37
		c-1.56-0.51-3.45-0.76-5.64-0.76c-1.98,0-3.93,0.1-5.82,0.29c-1.86,0.19-3.44,0.39-4.69,0.6l-1.26,0.21v35.25
		c0,1.34,0.94,2.28,2.28,2.28h3.71v-15.1h5.4c0.82,0.97,1.63,2.03,2.41,3.15C246.32,126.21,247.18,127.55,247.96,128.84
		 M250.06,110.11c0,1.33-0.16,2.41-0.48,3.22c-0.3,0.75-0.68,1.3-1.17,1.7c-0.52,0.42-1.12,0.69-1.85,0.85
		c-0.84,0.18-1.8,0.27-2.85,0.27h-6.14v-11.97c0.48-0.06,1-0.11,1.58-0.16c1.14-0.1,2.58-0.15,4.26-0.15c1.23,0,2.32,0.12,3.24,0.34
		c0.79,0.19,1.43,0.51,1.9,0.93c0.47,0.42,0.83,0.99,1.09,1.74C249.92,107.7,250.06,108.79,250.06,110.11"/>
</g>
<text transform="matrix(1 0 0 1 158.5883 88.5881)" class="st1 st2 st3">WebApp</text>
</svg>
